<svg width="422.46875px" height="123.2px" xmlns="http://www.w3.org/2000/svg" viewBox="38.765625 13.399999999999999 422.46875 123.2" style="background: rgba(0, 0, 0, 0);" preserveAspectRatio="xMidYMid"><defs><filter id="editing-raise" x="-100%" y="-100%" width="300%" height="300%"><feFlood flood-color="#ccc" result="flood-surface"></feFlood><feFlood flood-color="#777" result="flood-extrude"></feFlood><feMorphology operator="erode" in="SourceAlpha" radius="1" result="erode"></feMorphology><feConvolveMatrix in="erode" result="shadow" order="11,8" divisor="1" kernelMatrix="0 0 0 1 1 1 1 1 0 0 0 0 0 1 0 0 0 0 0 1 0 0 0 0 1 0 0 0 0 0 1 0 0 0 0 1 0 0 0 0 0 1 0 0 0 0 1 0 0 0 0 0 1 0 0 0 0 0 1 0 0 0 1 0 0 0 0 0 0 1 1 0 1 1 0 0 0 0 0 0 0 0 1 0 0 0 0 0"></feConvolveMatrix><feOffset dx="0" dy="4" in="shadow" result="offset"></feOffset><feGaussianBlur in="offset" stdDeviation="0.2" result="blur"></feGaussianBlur><feComposite operator="in" in="flood-extrude" in2="blur" result="extrude"></feComposite><feMorphology operator="erode" in="SourceAlpha" radius="1" result="erode2"></feMorphology><feConvolveMatrix in="erode2" result="out" order="4,4" divisor="1" kernelMatrix="0 1 1 0 1 0 0 1 1 0 0 1 0 1 1 0 "></feConvolveMatrix><feComposite operator="in" in="flood-surface" in2="out" result="text"></feComposite><feMerge><feMergeNode in="extrude"></feMergeNode><feMergeNode in="text"></feMergeNode></feMerge></filter></defs><g filter="url(#editing-raise)"><g transform="translate(102.34998083114624, 106.52000045776367)"><path d="M14.85-8.64L14.85-8.64L14.85-8.64Q12.61-8.64 10.75-9.92L10.75-9.92L10.75-9.92Q10.43-8.90 10.30-8.10L10.30-8.10L10.30-8.10Q10.18-7.30 10.18-6.46L10.18-6.46L10.18-6.46Q10.18-5.12 11.36-4.29L11.36-4.29L11.36-4.29Q12.54-3.46 14.34-2.82L14.34-2.82L14.34-2.82Q16.13-2.18 18.21-1.57L18.21-1.57L18.21-1.57Q20.29-0.96 22.08 0.06L22.08 0.06L22.08 0.06Q23.87 1.09 25.06 2.62L25.06 2.62L25.06 2.62Q26.24 4.16 26.24 6.59L26.24 6.59L26.24 6.59Q26.24 10.75 23.20 12.90L23.20 12.90L23.20 12.90Q20.16 15.04 14.72 15.04L14.72 15.04L14.72 15.04Q12.35 15.04 10.21 14.69L10.21 14.69L10.21 14.69Q8.06 14.34 6.40 13.22L6.40 13.22L6.40 13.22Q4.74 12.10 3.71 10.08L3.71 10.08L3.71 10.08Q2.69 8.06 2.56 4.74L2.56 4.74L7.74 4.35L7.74 4.35Q7.81 6.98 8.38 8.54L8.38 8.54L8.38 8.54Q8.96 10.11 9.92 10.98L9.92 10.98L9.92 10.98Q10.88 11.84 12.13 12.13L12.13 12.13L12.13 12.13Q13.38 12.42 14.78 12.42L14.78 12.42L14.78 12.42Q17.98 12.42 19.62 10.82L19.62 10.82L19.62 10.82Q21.25 9.22 21.25 6.59L21.25 6.59L21.25 6.59Q21.25 4.86 20.19 3.84L20.19 3.84L20.19 3.84Q19.14 2.82 17.50 2.11L17.50 2.11L17.50 2.11Q15.87 1.41 14.02 0.86L14.02 0.86L14.02 0.86Q12.16 0.32 10.53-0.45L10.53-0.45L10.53-0.45Q8.90-1.22 7.84-2.34L7.84-2.34L7.84-2.34Q6.78-3.46 6.78-5.38L6.78-5.38L6.78-5.38Q6.78-6.78 7.14-8.35L7.14-8.35L7.14-8.35Q7.49-9.92 8.64-11.78L8.64-11.78L8.64-11.78Q6.40-14.21 5.12-17.95L5.12-17.95L5.12-17.95Q3.84-21.70 3.84-25.66L3.84-25.66L3.84-25.66Q3.84-28.22 4.67-29.82L4.67-29.82L4.67-29.82Q5.50-31.42 6.98-32.29L6.98-32.29L6.98-32.29Q8.45-33.15 10.37-33.47L10.37-33.47L10.37-33.47Q12.29-33.79 14.53-33.79L14.53-33.79L14.53-33.79Q15.36-36.22 16.26-37.76L16.26-37.76L16.26-37.76Q17.15-39.30 18.14-40.16L18.14-40.16L18.14-40.16Q19.14-41.02 20.29-41.31L20.29-41.31L20.29-41.31Q21.44-41.60 22.78-41.60L22.78-41.60L22.78-41.60Q23.55-41.60 24.38-41.34L24.38-41.34L24.38-41.34Q25.22-41.09 25.95-40.48L25.95-40.48L25.95-40.48Q26.69-39.87 27.23-38.88L27.23-38.88L27.23-38.88Q27.78-37.89 27.97-36.35L27.97-36.35L22.78-34.94L22.78-34.94Q22.72-36.61 22.24-37.44L22.24-37.44L22.24-37.44Q21.76-38.27 20.99-38.27L20.99-38.27L20.99-38.27Q19.01-38.27 17.34-33.66L17.34-33.66L17.34-33.66Q19.14-33.54 20.70-33.12L20.70-33.12L20.70-33.12Q22.27-32.70 23.42-31.81L23.42-31.81L23.42-31.81Q24.58-30.91 25.22-29.41L25.22-29.41L25.22-29.41Q25.86-27.90 25.86-25.66L25.86-25.66L25.86-25.66Q25.86-22.53 25.02-19.46L25.02-19.46L25.02-19.46Q24.19-16.38 22.69-13.98L22.69-13.98L22.69-13.98Q21.18-11.58 19.17-10.11L19.17-10.11L19.17-10.11Q17.15-8.64 14.85-8.64ZM14.85-11.26L14.85-11.26L14.85-11.26Q16.06-11.26 17.15-12.48L17.15-12.48L17.15-12.48Q18.24-13.70 19.01-15.68L19.01-15.68L19.01-15.68Q19.78-17.66 20.22-20.22L20.22-20.22L20.22-20.22Q20.67-22.78 20.67-25.41L20.67-25.41L20.67-25.41Q20.67-27.26 20.22-28.42L20.22-28.42L20.22-28.42Q19.78-29.57 18.98-30.18L18.98-30.18L18.98-30.18Q18.18-30.78 17.12-30.98L17.12-30.98L17.12-30.98Q16.06-31.17 14.85-31.17L14.85-31.17L14.85-31.17Q13.63-31.17 12.58-30.98L12.58-30.98L12.58-30.98Q11.52-30.78 10.72-30.18L10.72-30.18L10.72-30.18Q9.92-29.57 9.47-28.42L9.47-28.42L9.47-28.42Q9.02-27.26 9.02-25.41L9.02-25.41L9.02-25.41Q9.02-22.78 9.47-20.22L9.47-20.22L9.47-20.22Q9.92-17.66 10.69-15.68L10.69-15.68L10.69-15.68Q11.46-13.70 12.51-12.48L12.51-12.48L12.51-12.48Q13.57-11.26 14.85-11.26ZM46.14-31.10L46.14-31.10L46.14-31.10Q44.86-31.10 43.71-28.58L43.71-28.58L43.71-28.58Q42.56-26.05 41.63-21.76L41.63-21.76L41.63-21.76Q40.70-17.47 40.06-11.84L40.06-11.84L40.06-11.84Q39.42-6.21 39.23 0L39.23 0L34.05 0L34.69-48L37.95-48L38.21-14.66L38.21-14.66Q38.66-18.82 39.36-22.34L39.36-22.34L39.36-22.34Q40.06-25.86 41.06-28.38L41.06-28.38L41.06-28.38Q42.05-30.91 43.33-32.35L43.33-32.35L43.33-32.35Q44.61-33.79 46.27-33.79L46.27-33.79L46.27-33.79Q48.45-33.79 50.24-31.39L50.24-31.39L50.24-31.39Q52.03-28.99 53.34-24.90L53.34-24.90L53.34-24.90Q54.66-20.80 55.39-15.30L55.39-15.30L55.39-15.30Q56.13-9.79 56.13-3.58L56.13-3.58L56.13-3.58Q56.13-2.69 56.13-1.79L56.13-1.79L56.13-1.79Q56.13-0.90 56.06 0L56.06 0L50.88 0L50.88 0Q50.94-1.47 50.94-2.85L50.94-2.85L50.94-2.85Q50.94-4.22 50.94-5.63L50.94-5.63L50.94-5.63Q50.94-10.88 50.59-15.52L50.59-15.52L50.59-15.52Q50.24-20.16 49.63-23.62L49.63-23.62L49.63-23.62Q49.02-27.07 48.13-29.09L48.13-29.09L48.13-29.09Q47.23-31.10 46.14-31.10ZM65.60 0L64.90-33.02L69.89-33.02L69.18 0L65.60 0ZM67.33-37.44L67.33-37.44L67.33-37.44Q66.69-37.44 66.14-37.92L66.14-37.92L66.14-37.92Q65.60-38.40 65.22-39.20L65.22-39.20L65.22-39.20Q64.83-40 64.61-41.02L64.61-41.02L64.61-41.02Q64.38-42.05 64.38-43.07L64.38-43.07L64.38-43.07Q64.38-44.61 65.25-45.02L65.25-45.02L65.25-45.02Q66.11-45.44 67.33-45.44L67.33-45.44L67.33-45.44Q68.54-45.44 69.38-45.02L69.38-45.02L69.38-45.02Q70.21-44.61 70.21-43.07L70.21-43.07L70.21-43.07Q70.21-42.05 69.98-41.02L69.98-41.02L69.98-41.02Q69.76-40 69.38-39.20L69.38-39.20L69.38-39.20Q68.99-38.40 68.48-37.92L68.48-37.92L68.48-37.92Q67.97-37.44 67.33-37.44ZM81.09 0L80.38-48L85.38-48L84.67 0L81.09 0ZM94.91-10.24L95.55-48L98.82-48L99.20-26.24L99.20-26.24Q100.29-29.63 101.92-31.71L101.92-31.71L101.92-31.71Q103.55-33.79 105.92-33.79L105.92-33.79L105.92-33.79Q108.22-33.79 110.24-31.74L110.24-31.74L110.24-31.74Q112.26-29.70 113.76-26.37L113.76-26.37L113.76-26.37Q115.26-23.04 116.10-18.82L116.10-18.82L116.10-18.82Q116.93-14.59 116.93-10.24L116.93-10.24L116.93-10.24Q116.93-6.59 116.06-4.42L116.06-4.42L116.06-4.42Q115.20-2.24 113.70-1.02L113.70-1.02L113.70-1.02Q112.19 0.19 110.18 0.58L110.18 0.58L110.18 0.58Q108.16 0.96 105.92 0.96L105.92 0.96L105.92 0.96Q103.68 0.96 101.66 0.58L101.66 0.58L101.66 0.58Q99.65 0.19 98.14-1.02L98.14-1.02L98.14-1.02Q96.64-2.24 95.78-4.42L95.78-4.42L95.78-4.42Q94.91-6.59 94.91-10.24L94.91-10.24ZM105.92-31.17L105.92-31.17L105.92-31.17Q104.64-31.17 103.55-29.38L103.55-29.38L103.55-29.38Q102.46-27.58 101.60-24.64L101.60-24.64L101.60-24.64Q100.74-21.70 100.26-17.92L100.26-17.92L100.26-17.92Q99.78-14.14 99.78-10.24L99.78-10.24L99.78-10.24Q99.78-7.42 100.29-5.76L100.29-5.76L100.29-5.76Q100.80-4.10 101.66-3.17L101.66-3.17L101.66-3.17Q102.53-2.24 103.62-1.95L103.62-1.95L103.62-1.95Q104.70-1.66 105.92-1.66L105.92-1.66L105.92-1.66Q107.14-1.66 108.19-1.95L108.19-1.95L108.19-1.95Q109.25-2.24 110.05-3.17L110.05-3.17L110.05-3.17Q110.85-4.10 111.30-5.76L111.30-5.76L111.30-5.76Q111.74-7.42 111.74-10.24L111.74-10.24L111.74-10.24Q111.74-14.14 111.30-17.92L111.30-17.92L111.30-17.92Q110.85-21.70 110.08-24.64L110.08-24.64L110.08-24.64Q109.31-27.58 108.22-29.38L108.22-29.38L108.22-29.38Q107.14-31.17 105.92-31.17ZM125.89 0L125.18-48L130.18-48L129.47 0L125.89 0ZM141.57 0L140.86-33.02L145.86-33.02L145.15 0L141.57 0ZM143.30-37.44L143.30-37.44L143.30-37.44Q142.66-37.44 142.11-37.92L142.11-37.92L142.11-37.92Q141.57-38.40 141.18-39.20L141.18-39.20L141.18-39.20Q140.80-40 140.58-41.02L140.58-41.02L140.58-41.02Q140.35-42.05 140.35-43.07L140.35-43.07L140.35-43.07Q140.35-44.61 141.22-45.02L141.22-45.02L141.22-45.02Q142.08-45.44 143.30-45.44L143.30-45.44L143.30-45.44Q144.51-45.44 145.34-45.02L145.34-45.02L145.34-45.02Q146.18-44.61 146.18-43.07L146.18-43.07L146.18-43.07Q146.18-42.05 145.95-41.02L145.95-41.02L145.95-41.02Q145.73-40 145.34-39.20L145.34-39.20L145.34-39.20Q144.96-38.40 144.45-37.92L144.45-37.92L144.45-37.92Q143.94-37.44 143.30-37.44ZM191.81-48L195.07-48L195.07-48Q195.20-38.53 195.33-32L195.33-32L195.33-32Q195.46-25.47 195.52-21.25L195.52-21.25L195.52-21.25Q195.58-17.02 195.62-14.72L195.62-14.72L195.62-14.72Q195.65-12.42 195.68-11.33L195.68-11.33L195.68-11.33Q195.71-10.24 195.71-10.02L195.71-10.02L195.71-10.02Q195.71-9.79 195.71-9.73L195.71-9.73L195.71-9.73Q195.71-6.27 194.82-4.16L194.82-4.16L194.82-4.16Q193.92-2.05 192.42-0.93L192.42-0.93L192.42-0.93Q190.91 0.19 188.90 0.58L188.90 0.58L188.90 0.58Q186.88 0.96 184.70 0.96L184.70 0.96L184.70 0.96Q182.46 0.96 180.45 0.58L180.45 0.58L180.45 0.58Q178.43 0.19 176.93-1.02L176.93-1.02L176.93-1.02Q175.42-2.24 174.56-4.42L174.56-4.42L174.56-4.42Q173.70-6.59 173.70-10.24L173.70-10.24L173.70-10.24Q173.70-14.59 174.53-18.82L174.53-18.82L174.53-18.82Q175.36-23.04 176.86-26.37L176.86-26.37L176.86-26.37Q178.37-29.70 180.38-31.74L180.38-31.74L180.38-31.74Q182.40-33.79 184.70-33.79L184.70-33.79L184.70-33.79Q187.07-33.79 188.70-31.71L188.70-31.71L188.70-31.71Q190.34-29.63 191.42-26.24L191.42-26.24L191.81-48ZM184.70-31.17L184.70-31.17L184.70-31.17Q183.42-31.17 182.37-29.38L182.37-29.38L182.37-29.38Q181.31-27.58 180.54-24.64L180.54-24.64L180.54-24.64Q179.78-21.70 179.33-17.92L179.33-17.92L179.33-17.92Q178.88-14.14 178.88-10.24L178.88-10.24L178.88-10.24Q178.88-7.42 179.33-5.76L179.33-5.76L179.33-5.76Q179.78-4.10 180.58-3.17L180.58-3.17L180.58-3.17Q181.38-2.24 182.43-1.95L182.43-1.95L182.43-1.95Q183.49-1.66 184.70-1.66L184.70-1.66L184.70-1.66Q185.92-1.66 187.01-1.95L187.01-1.95L187.01-1.95Q188.10-2.24 188.96-3.17L188.96-3.17L188.96-3.17Q189.82-4.10 190.34-5.76L190.34-5.76L190.34-5.76Q190.85-7.42 190.85-10.24L190.85-10.24L190.85-10.24Q190.85-14.14 190.37-17.92L190.37-17.92L190.37-17.92Q189.89-21.70 189.02-24.64L189.02-24.64L189.02-24.64Q188.16-27.58 187.04-29.38L187.04-29.38L187.04-29.38Q185.92-31.17 184.70-31.17ZM206.53 0L205.82-33.02L210.82-33.02L210.11 0L206.53 0ZM208.26-37.44L208.26-37.44L208.26-37.44Q207.62-37.44 207.07-37.92L207.07-37.92L207.07-37.92Q206.53-38.40 206.14-39.20L206.14-39.20L206.14-39.20Q205.76-40 205.54-41.02L205.54-41.02L205.54-41.02Q205.31-42.05 205.31-43.07L205.31-43.07L205.31-43.07Q205.31-44.61 206.18-45.02L206.18-45.02L206.18-45.02Q207.04-45.44 208.26-45.44L208.26-45.44L208.26-45.44Q209.47-45.44 210.30-45.02L210.30-45.02L210.30-45.02Q211.14-44.61 211.14-43.07L211.14-43.07L211.14-43.07Q211.14-42.05 210.91-41.02L210.91-41.02L210.91-41.02Q210.69-40 210.30-39.20L210.30-39.20L210.30-39.20Q209.92-38.40 209.41-37.92L209.41-37.92L209.41-37.92Q208.90-37.44 208.26-37.44ZM229.89-33.98L229.89-33.98L229.89-33.98Q232.19-33.98 234.21-31.90L234.21-31.90L234.21-31.90Q236.22-29.82 237.73-26.46L237.73-26.46L237.73-26.46Q239.23-23.10 240.06-18.85L240.06-18.85L240.06-18.85Q240.90-14.59 240.90-10.24L240.90-10.24L240.90-10.24Q240.90-6.59 240.03-4.42L240.03-4.42L240.03-4.42Q239.17-2.24 237.66-1.02L237.66-1.02L237.66-1.02Q236.16 0.19 234.14 0.58L234.14 0.58L234.14 0.58Q232.13 0.96 229.89 0.96L229.89 0.96L229.89 0.96Q227.65 0.96 225.73 0.61L225.73 0.61L225.73 0.61Q223.81 0.26 222.40-0.77L222.40-0.77L222.40-0.77Q220.99-1.79 220.19-3.62L220.19-3.62L220.19-3.62Q219.39-5.44 219.39-8.32L219.39-8.32L219.39-8.32Q219.39-10.69 220.42-12.54L220.42-12.54L220.42-12.54Q221.44-14.40 223.17-15.65L223.17-15.65L223.17-15.65Q224.90-16.90 227.17-17.57L227.17-17.57L227.17-17.57Q229.44-18.24 231.94-18.24L231.94-18.24L231.94-18.24Q233.47-18.24 235.26-17.92L235.26-17.92L235.26-17.92Q234.94-20.67 234.40-23.10L234.40-23.10L234.40-23.10Q233.86-25.54 233.15-27.36L233.15-27.36L233.15-27.36Q232.45-29.18 231.62-30.24L231.62-30.24L231.62-30.24Q230.78-31.30 229.89-31.30L229.89-31.30L229.89-31.30Q228.67-31.30 227.62-28.93L227.62-28.93L227.62-28.93Q226.56-26.56 226.56-22.72L226.56-22.72L221.38-24.06L221.38-24.06Q222.08-27.01 222.98-28.93L222.98-28.93L222.98-28.93Q223.87-30.85 224.96-31.97L224.96-31.97L224.96-31.97Q226.05-33.09 227.30-33.54L227.30-33.54L227.30-33.54Q228.54-33.98 229.89-33.98ZM235.71-10.24L235.71-10.24L235.71-10.24Q235.71-12.67 235.52-15.10L235.52-15.10L235.52-15.10Q235.01-15.17 234.56-15.20L234.56-15.20L234.56-15.20Q234.11-15.23 233.66-15.23L233.66-15.23L233.66-15.23Q231.81-15.23 230.18-14.85L230.18-14.85L230.18-14.85Q228.54-14.46 227.30-13.63L227.30-13.63L227.30-13.63Q226.05-12.80 225.31-11.49L225.31-11.49L225.31-11.49Q224.58-10.18 224.58-8.32L224.58-8.32L224.58-8.32Q224.58-6.27 224.96-4.96L224.96-4.96L224.96-4.96Q225.34-3.65 226.05-2.91L226.05-2.91L226.05-2.91Q226.75-2.18 227.71-1.92L227.71-1.92L227.71-1.92Q228.67-1.66 229.89-1.66L229.89-1.66L229.89-1.66Q231.10-1.66 232.16-1.95L232.16-1.95L232.16-1.95Q233.22-2.24 234.02-3.17L234.02-3.17L234.02-3.17Q234.82-4.10 235.26-5.76L235.26-5.76L235.26-5.76Q235.71-7.42 235.71-10.24ZM251.52-33.02L252.42-16.83L252.42-16.83Q252.80-20.61 253.44-23.78L253.44-23.78L253.44-23.78Q254.08-26.94 255.04-29.22L255.04-29.22L255.04-29.22Q256.00-31.49 257.34-32.74L257.34-32.74L257.34-32.74Q258.69-33.98 260.48-33.98L260.48-33.98L260.48-33.98Q261.57-33.98 262.82-33.54L262.82-33.54L262.82-33.54Q264.06-33.09 265.12-31.97L265.12-31.97L265.12-31.97Q266.18-30.85 266.85-28.93L266.85-28.93L266.85-28.93Q267.52-27.01 267.52-24.06L267.52-24.06L262.34-22.72L262.34-22.72Q262.34-26.56 261.57-28.93L261.57-28.93L261.57-28.93Q260.80-31.30 259.58-31.30L259.58-31.30L259.58-31.30Q258.30-31.30 257.25-28.74L257.25-28.74L257.25-28.74Q256.19-26.18 255.42-21.86L255.42-21.86L255.42-21.86Q254.66-17.54 254.21-11.87L254.21-11.87L254.21-11.87Q253.76-6.21 253.76 0L253.76 0L248.58 0L249.22-33.02L251.52-33.02ZM282.56 14.98L278.34 13.06L278.34 13.06Q280.45 9.34 282.21 5.54L282.21 5.54L282.21 5.54Q283.97 1.73 285.31-2.05L285.31-2.05L285.31-2.05Q283.78 0 281.73 0L281.73 0L281.73 0Q279.42 0 277.41-2.62L277.41-2.62L277.41-2.62Q275.39-5.25 273.89-9.73L273.89-9.73L273.89-9.73Q272.38-14.21 271.55-20.22L271.55-20.22L271.55-20.22Q270.72-26.24 270.72-33.02L270.72-33.02L275.90-33.02L275.90-33.02Q275.90-26.82 276.35-21.31L276.35-21.31L276.35-21.31Q276.80-15.81 277.57-11.68L277.57-11.68L277.57-11.68Q278.34-7.55 279.39-5.12L279.39-5.12L279.39-5.12Q280.45-2.69 281.73-2.69L281.73-2.69L281.73-2.69Q283.39-2.69 284.54-4.48L284.54-4.48L284.54-4.48Q285.70-6.27 286.40-9.41L286.40-9.41L286.40-9.41Q287.10-12.54 287.39-16.83L287.39-16.83L287.39-16.83Q287.68-21.12 287.68-26.11L287.68-26.11L287.68-26.11Q287.68-27.78 287.65-29.50L287.65-29.50L287.65-29.50Q287.62-31.23 287.55-33.02L287.55-33.02L292.74-33.02L292.74-33.02Q292.74-25.86 291.90-19.26L291.90-19.26L291.90-19.26Q291.07-12.67 289.66-6.62L289.66-6.62L289.66-6.62Q288.26-0.58 286.40 4.83L286.40 4.83L286.40 4.83Q284.54 10.24 282.56 14.98L282.56 14.98Z"></path></g></g><style>text {
  font-size: 64px;
  font-family: Arial Black;
  dominant-baseline: central;
  text-anchor: middle;
}</style></svg>